<svg xmlns="http://www.w3.org/2000/svg" xmlns:xlink="http://www.w3.org/1999/xlink" width="500" zoomAndPan="magnify" viewBox="0 0 375 374.999991" height="500" preserveAspectRatio="xMidYMid meet" version="1.0"><defs><g/><clipPath id="3bfcd41d0b"><path d="M 141.082031 37.625 L 281.332031 37.625 L 281.332031 204.75 L 141.082031 204.75 Z M 141.082031 37.625 " clip-rule="nonzero"/></clipPath></defs><g clip-path="url(#3bfcd41d0b)"><path fill="#95b615" d="M 281.355469 80.300781 C 277.984375 79.792969 274.566406 79.542969 271.125 79.457031 C 267.6875 79.378906 264.230469 79.511719 260.773438 79.832031 C 257.316406 80.15625 253.863281 80.671875 250.4375 81.386719 C 247.007812 82.097656 243.605469 83.003906 240.253906 84.089844 C 236.898438 85.179688 233.59375 86.457031 230.355469 87.910156 C 228.734375 88.632812 227.136719 89.414062 225.554688 90.226562 C 225.152344 90.421875 224.761719 90.632812 224.371094 90.84375 L 223.191406 91.476562 C 222.40625 91.898438 221.644531 92.359375 220.867188 92.800781 C 217.78125 94.59375 214.792969 96.574219 211.898438 98.691406 C 209.015625 100.824219 206.222656 103.097656 203.566406 105.53125 C 200.898438 107.957031 198.367188 110.535156 195.957031 113.234375 C 195.363281 113.914062 194.765625 114.59375 194.183594 115.285156 C 193.609375 115.984375 193.023438 116.675781 192.457031 117.386719 C 191.902344 118.101562 191.332031 118.804688 190.785156 119.53125 C 190.246094 120.257812 189.695312 120.976562 189.171875 121.71875 C 187.058594 124.671875 185.082031 127.730469 183.285156 130.898438 C 182.382812 132.476562 181.515625 134.082031 180.699219 135.710938 C 179.882812 137.339844 179.105469 138.992188 178.371094 140.664062 C 176.890625 144 175.613281 147.429688 174.492188 150.910156 C 173.394531 154.316406 172.492188 157.789062 171.742188 161.296875 C 171.238281 160.527344 170.738281 159.753906 170.253906 158.972656 C 169.835938 158.324219 169.457031 157.652344 169.058594 156.992188 C 168.652344 156.332031 168.289062 155.652344 167.902344 154.984375 C 166.390625 152.292969 165.015625 149.519531 163.753906 146.691406 C 163.125 145.277344 162.535156 143.847656 161.972656 142.402344 C 161.40625 140.957031 160.878906 139.5 160.378906 138.027344 C 159.398438 135.082031 158.519531 132.09375 157.808594 129.058594 C 157.710938 128.679688 157.632812 128.296875 157.546875 127.917969 L 157.289062 126.773438 C 157.121094 126.015625 156.980469 125.246094 156.820312 124.480469 C 156.671875 123.710938 156.550781 122.941406 156.410156 122.171875 L 156.050781 119.847656 C 155.597656 116.75 155.296875 113.621094 155.125 110.476562 C 154.96875 107.328125 154.929688 104.167969 155.058594 101.003906 C 155.171875 97.835938 155.441406 94.667969 155.839844 91.503906 C 156.050781 89.921875 156.285156 88.34375 156.558594 86.765625 C 156.832031 85.1875 157.148438 83.617188 157.488281 82.046875 C 158.183594 78.910156 159.015625 75.789062 159.996094 72.703125 C 160.972656 69.613281 162.097656 66.554688 163.359375 63.535156 C 164.625 60.515625 166.019531 57.535156 167.5625 54.605469 C 169.097656 51.671875 170.773438 48.796875 172.574219 45.964844 C 173.03125 45.265625 173.476562 44.550781 173.945312 43.851562 L 175.367188 41.761719 L 176.828125 39.691406 C 177.332031 39.003906 177.839844 38.320312 178.332031 37.625 C 177.652344 38.140625 176.984375 38.664062 176.308594 39.183594 C 175.644531 39.71875 174.992188 40.269531 174.328125 40.816406 C 173.671875 41.371094 173.042969 41.945312 172.394531 42.515625 C 171.757812 43.085938 171.140625 43.683594 170.507812 44.269531 C 168.027344 46.648438 165.675781 49.1875 163.457031 51.859375 C 161.246094 54.53125 159.167969 57.339844 157.253906 60.269531 C 155.332031 63.195312 153.570312 66.238281 151.96875 69.378906 C 150.371094 72.523438 148.933594 75.761719 147.675781 79.078125 C 147.039062 80.734375 146.460938 82.414062 145.917969 84.109375 C 145.773438 84.53125 145.644531 84.957031 145.519531 85.386719 L 145.132812 86.664062 C 145 87.089844 144.890625 87.519531 144.773438 87.953125 L 144.425781 89.242188 C 143.515625 92.691406 142.796875 96.203125 142.25 99.75 C 141.722656 103.292969 141.351562 106.875 141.195312 110.476562 C 141.023438 114.074219 141.054688 117.6875 141.261719 121.296875 C 141.324219 122.199219 141.375 123.105469 141.453125 124.003906 C 141.542969 124.90625 141.617188 125.808594 141.722656 126.707031 C 141.832031 127.605469 141.925781 128.507812 142.054688 129.40625 C 142.1875 130.300781 142.300781 131.203125 142.457031 132.097656 C 143.054688 135.675781 143.8125 139.238281 144.785156 142.746094 C 145.265625 144.5 145.789062 146.246094 146.355469 147.976562 C 146.929688 149.707031 147.550781 151.425781 148.210938 153.125 C 149.527344 156.527344 151.039062 159.859375 152.710938 163.113281 C 153.539062 164.742188 154.421875 166.34375 155.347656 167.921875 C 156.269531 169.503906 157.234375 171.058594 158.230469 172.589844 C 160.234375 175.65625 162.410156 178.605469 164.710938 181.453125 C 167.019531 184.292969 169.480469 187.003906 172.058594 189.601562 L 187.21875 204.871094 L 187.214844 194.152344 C 188.328125 150.667969 203.292969 127.621094 210.816406 118.46875 C 211.675781 117.4375 212.554688 116.421875 213.453125 115.417969 C 215.5625 113.082031 217.773438 110.820312 220.101562 108.675781 C 222.417969 106.515625 224.851562 104.46875 227.371094 102.511719 C 228.632812 101.542969 229.917969 100.59375 231.226562 99.667969 C 232.53125 98.746094 233.867188 97.859375 235.21875 96.992188 C 237.925781 95.261719 240.722656 93.648438 243.597656 92.15625 C 244 91.945312 244.414062 91.742188 244.820312 91.539062 C 231.503906 101.695312 200.132812 134.160156 214.710938 148.8125 C 217.625 151.742188 227.003906 153.492188 235.300781 151.507812 C 283.074219 140.058594 281.355469 80.304688 281.355469 80.300781 " fill-opacity="1" fill-rule="nonzero"/></g><g fill="#b88e2f" fill-opacity="1"><g transform="translate(-1.002322, 226.51522)"><g><path d="M 48.84375 -35.59375 C 48.101562 -38.625 46.753906 -41.015625 44.796875 -42.765625 C 42.835938 -44.515625 40.613281 -45.765625 38.125 -46.515625 C 35.644531 -47.273438 33.207031 -47.65625 30.8125 -47.65625 C 27.144531 -47.65625 23.847656 -46.78125 20.921875 -45.03125 C 18.003906 -43.28125 15.679688 -40.875 13.953125 -37.8125 C 12.222656 -34.757812 11.359375 -31.273438 11.359375 -27.359375 C 11.359375 -23.441406 12.222656 -19.925781 13.953125 -16.8125 C 15.679688 -13.707031 18.003906 -11.265625 20.921875 -9.484375 C 23.847656 -7.703125 27.144531 -6.8125 30.8125 -6.8125 C 33.101562 -6.8125 35.382812 -7.242188 37.65625 -8.109375 C 39.9375 -8.972656 42.015625 -10.28125 43.890625 -12.03125 C 45.773438 -13.78125 47.265625 -16.015625 48.359375 -18.734375 L 27.671875 -18.734375 L 27.671875 -26.8125 L 57.859375 -26.8125 C 57.640625 -24.457031 57.425781 -22.484375 57.21875 -20.890625 C 57.007812 -19.296875 56.695312 -18.03125 56.28125 -17.09375 L 56.28125 -17.171875 C 55.03125 -13.617188 53.03125 -10.484375 50.28125 -7.765625 C 47.539062 -5.046875 44.457031 -2.914062 41.03125 -1.375 C 37.613281 0.164062 34.207031 0.9375 30.8125 0.9375 C 26.882812 0.9375 23.25 0.242188 19.90625 -1.140625 C 16.5625 -2.523438 13.648438 -4.484375 11.171875 -7.015625 C 8.691406 -9.546875 6.757812 -12.535156 5.375 -15.984375 C 3.988281 -19.441406 3.296875 -23.234375 3.296875 -27.359375 C 3.296875 -31.484375 4 -35.285156 5.40625 -38.765625 C 6.820312 -42.242188 8.78125 -45.25 11.28125 -47.78125 C 13.789062 -50.3125 16.703125 -52.269531 20.015625 -53.65625 C 23.335938 -55.039062 26.9375 -55.734375 30.8125 -55.734375 C 33.476562 -55.734375 36.21875 -55.378906 39.03125 -54.671875 C 41.851562 -53.972656 44.519531 -52.835938 47.03125 -51.265625 C 49.539062 -49.703125 51.722656 -47.625 53.578125 -45.03125 C 55.429688 -42.445312 56.722656 -39.300781 57.453125 -35.59375 Z M 48.84375 -35.59375 "/></g></g></g><g fill="#b88e2f" fill-opacity="1"><g transform="translate(57.473436, 226.51522)"><g><path d="M 37.15625 -5.5625 C 35.59375 -3.257812 33.660156 -1.648438 31.359375 -0.734375 C 29.054688 0.171875 26.519531 0.625 23.75 0.625 C 19.46875 0.625 15.96875 -0.207031 13.25 -1.875 C 10.53125 -3.550781 8.53125 -5.914062 7.25 -8.96875 C 5.96875 -12.03125 5.328125 -15.570312 5.328125 -19.59375 L 5.328125 -42.796875 L 13.015625 -42.796875 L 13.015625 -19.59375 C 13.015625 -16.976562 13.3125 -14.648438 13.90625 -12.609375 C 14.507812 -10.578125 15.617188 -9 17.234375 -7.875 C 18.859375 -6.75 21.210938 -6.1875 24.296875 -6.1875 C 28.328125 -6.1875 31.410156 -7.453125 33.546875 -9.984375 C 35.691406 -12.523438 36.765625 -15.648438 36.765625 -19.359375 L 36.765625 -42.796875 L 44.453125 -42.796875 L 44.453125 0 L 37.15625 0 Z M 37.15625 -5.5625 "/></g></g></g><g fill="#b88e2f" fill-opacity="1"><g transform="translate(104.426356, 226.51522)"><g><path d="M 13.484375 -37.15625 C 14.992188 -39.300781 16.78125 -40.851562 18.84375 -41.8125 C 20.914062 -42.78125 23.128906 -43.265625 25.484375 -43.265625 C 26.316406 -43.265625 27.148438 -43.210938 27.984375 -43.109375 C 28.816406 -43.003906 29.65625 -42.847656 30.5 -42.640625 L 30.5 -35.90625 C 29.238281 -36.269531 27.929688 -36.453125 26.578125 -36.453125 C 24.222656 -36.453125 22.050781 -35.863281 20.0625 -34.6875 C 18.082031 -33.507812 16.488281 -31.914062 15.28125 -29.90625 C 14.082031 -27.894531 13.484375 -25.582031 13.484375 -22.96875 L 13.484375 0 L 5.875 0 L 5.875 -42.328125 L 13.484375 -42.328125 Z M 13.484375 -37.15625 "/></g></g></g><g fill="#b88e2f" fill-opacity="1"><g transform="translate(133.820663, 226.51522)"><g><path d="M 37.15625 -5.5625 C 35.59375 -3.257812 33.660156 -1.648438 31.359375 -0.734375 C 29.054688 0.171875 26.519531 0.625 23.75 0.625 C 19.46875 0.625 15.96875 -0.207031 13.25 -1.875 C 10.53125 -3.550781 8.53125 -5.914062 7.25 -8.96875 C 5.96875 -12.03125 5.328125 -15.570312 5.328125 -19.59375 L 5.328125 -42.796875 L 13.015625 -42.796875 L 13.015625 -19.59375 C 13.015625 -16.976562 13.3125 -14.648438 13.90625 -12.609375 C 14.507812 -10.578125 15.617188 -9 17.234375 -7.875 C 18.859375 -6.75 21.210938 -6.1875 24.296875 -6.1875 C 28.328125 -6.1875 31.410156 -7.453125 33.546875 -9.984375 C 35.691406 -12.523438 36.765625 -15.648438 36.765625 -19.359375 L 36.765625 -42.796875 L 44.453125 -42.796875 L 44.453125 0 L 37.15625 0 Z M 37.15625 -5.5625 "/></g></g></g><g fill="#b88e2f" fill-opacity="1"><g transform="translate(180.773583, 226.51522)"><g><path d="M 14.578125 0 L 6.734375 0 L 6.734375 -54.875 L 14.578125 -54.875 Z M 35.203125 -54.875 L 45 -54.875 L 24.0625 -27.59375 L 47.1875 0 L 37 0 L 16.0625 -25.40625 L 16.0625 -29.390625 Z M 35.203125 -54.875 "/></g></g></g><g fill="#b88e2f" fill-opacity="1"><g transform="translate(223.963949, 226.51522)"><g><path d="M 5.40625 -53.3125 C 5.40625 -54.769531 5.914062 -55.863281 6.9375 -56.59375 C 7.957031 -57.332031 9.066406 -57.703125 10.265625 -57.703125 C 11.472656 -57.703125 12.554688 -57.347656 13.515625 -56.640625 C 14.484375 -55.929688 14.96875 -54.820312 14.96875 -53.3125 C 14.96875 -51.84375 14.472656 -50.726562 13.484375 -49.96875 C 12.492188 -49.21875 11.394531 -48.84375 10.1875 -48.84375 C 9.039062 -48.84375 7.957031 -49.21875 6.9375 -49.96875 C 5.914062 -50.726562 5.40625 -51.84375 5.40625 -53.3125 Z M 6.34375 -42.875 L 6.34375 0 L 14.03125 0 L 14.03125 -42.875 Z M 6.34375 -42.875 "/></g></g></g><g fill="#b88e2f" fill-opacity="1"><g transform="translate(241.521862, 226.51522)"><g><path d="M 13.484375 -37.15625 C 14.992188 -39.300781 16.78125 -40.851562 18.84375 -41.8125 C 20.914062 -42.78125 23.128906 -43.265625 25.484375 -43.265625 C 26.316406 -43.265625 27.148438 -43.210938 27.984375 -43.109375 C 28.816406 -43.003906 29.65625 -42.847656 30.5 -42.640625 L 30.5 -35.90625 C 29.238281 -36.269531 27.929688 -36.453125 26.578125 -36.453125 C 24.222656 -36.453125 22.050781 -35.863281 20.0625 -34.6875 C 18.082031 -33.507812 16.488281 -31.914062 15.28125 -29.90625 C 14.082031 -27.894531 13.484375 -25.582031 13.484375 -22.96875 L 13.484375 0 L 5.875 0 L 5.875 -42.328125 L 13.484375 -42.328125 Z M 13.484375 -37.15625 "/></g></g></g><g fill="#b88e2f" fill-opacity="1"><g transform="translate(270.91617, 226.51522)"><g><path d="M 5.796875 12.390625 L 5.796875 -42.40625 L 13.484375 -42.40625 L 13.484375 -36.765625 C 14.992188 -39.066406 17.09375 -40.695312 19.78125 -41.65625 C 22.476562 -42.625 25.160156 -43.109375 27.828125 -43.109375 C 32.742188 -43.109375 36.804688 -42.078125 40.015625 -40.015625 C 43.234375 -37.953125 45.640625 -35.25 47.234375 -31.90625 C 48.828125 -28.5625 49.625 -24.957031 49.625 -21.09375 C 49.625 -17.269531 48.800781 -13.695312 47.15625 -10.375 C 45.507812 -7.0625 43.066406 -4.382812 39.828125 -2.34375 C 36.585938 -0.3125 32.5625 0.703125 27.75 0.703125 C 25.132812 0.703125 22.570312 0.285156 20.0625 -0.546875 C 17.5625 -1.378906 15.367188 -3.050781 13.484375 -5.5625 L 13.484375 12.390625 Z M 13.484375 -21.25 C 13.484375 -17.90625 14.175781 -15.109375 15.5625 -12.859375 C 16.945312 -10.609375 18.734375 -8.921875 20.921875 -7.796875 C 23.117188 -6.671875 25.394531 -6.109375 27.75 -6.109375 C 30.882812 -6.109375 33.507812 -6.835938 35.625 -8.296875 C 37.738281 -9.765625 39.316406 -11.660156 40.359375 -13.984375 C 41.410156 -16.316406 41.9375 -18.738281 41.9375 -21.25 C 41.9375 -23.800781 41.410156 -26.226562 40.359375 -28.53125 C 39.316406 -30.832031 37.75 -32.710938 35.65625 -34.171875 C 33.570312 -35.640625 30.960938 -36.375 27.828125 -36.375 C 25.472656 -36.375 23.195312 -35.8125 21 -34.6875 C 18.8125 -33.5625 17.007812 -31.890625 15.59375 -29.671875 C 14.1875 -27.453125 13.484375 -24.644531 13.484375 -21.25 Z M 13.484375 -21.25 "/></g></g></g><g fill="#b88e2f" fill-opacity="1"><g transform="translate(321.39649, 226.51522)"><g><path d="M 49.9375 0 L 42.25 0 L 42.25 -5.71875 C 41.257812 -4.207031 39.898438 -2.976562 38.171875 -2.03125 C 36.453125 -1.09375 34.625 -0.414062 32.6875 0 C 30.75 0.414062 28.894531 0.648438 27.125 0.703125 C 22.207031 0.703125 18.050781 -0.328125 14.65625 -2.390625 C 11.257812 -4.453125 8.6875 -7.164062 6.9375 -10.53125 C 5.1875 -13.90625 4.3125 -17.53125 4.3125 -21.40625 C 4.3125 -25.21875 5.195312 -28.769531 6.96875 -32.0625 C 8.75 -35.351562 11.335938 -38.015625 14.734375 -40.046875 C 18.128906 -42.085938 22.207031 -43.109375 26.96875 -43.109375 C 28.738281 -43.109375 30.566406 -42.9375 32.453125 -42.59375 C 34.335938 -42.257812 36.140625 -41.632812 37.859375 -40.71875 C 39.585938 -39.8125 41.078125 -38.492188 42.328125 -36.765625 L 42.25 -42.40625 L 49.9375 -42.40625 Z M 42.25 -21.25 C 42.25 -24.644531 41.476562 -27.453125 39.9375 -29.671875 C 38.394531 -31.890625 36.445312 -33.5625 34.09375 -34.6875 C 31.75 -35.8125 29.375 -36.375 26.96875 -36.375 C 23.882812 -36.375 21.21875 -35.707031 18.96875 -34.375 C 16.71875 -33.039062 14.992188 -31.25 13.796875 -29 C 12.597656 -26.757812 12 -24.226562 12 -21.40625 C 12 -18.738281 12.597656 -16.238281 13.796875 -13.90625 C 14.992188 -11.582031 16.703125 -9.703125 18.921875 -8.265625 C 21.148438 -6.828125 23.832031 -6.109375 26.96875 -6.109375 C 29.320312 -6.109375 31.671875 -6.65625 34.015625 -7.75 C 36.367188 -8.851562 38.328125 -10.53125 39.890625 -12.78125 C 41.460938 -15.03125 42.25 -17.851562 42.25 -21.25 Z M 42.25 -21.25 "/></g></g></g><g fill="#b88e2f" fill-opacity="1"><g transform="translate(97.238077, 262.536004)"><g><path d="M -0.015625 0 L 5.28125 -14.65625 L 8.984375 -14.65625 L 14.265625 0 L 10.578125 0 L 9.640625 -3.046875 L 4.609375 -3.046875 L 3.671875 0 Z M 5.453125 -5.859375 L 8.8125 -5.859375 L 7.15625 -11.28125 L 7.109375 -11.28125 Z M 5.453125 -5.859375 "/></g></g></g><g fill="#b88e2f" fill-opacity="1"><g transform="translate(121.999165, 262.536004)"><g><path d="M 4.9375 0 L 4.9375 -5.40625 L 0.015625 -14.65625 L 3.921875 -14.65625 L 6.765625 -8.625 L 6.8125 -8.625 L 9.671875 -14.65625 L 13.578125 -14.65625 L 8.625 -5.40625 L 8.625 0 Z M 4.9375 0 "/></g></g></g><g fill="#b88e2f" fill-opacity="1"><g transform="translate(146.063388, 262.536004)"><g><path d="M 7.03125 0.328125 C 4.8125 0.328125 3.234375 -0.148438 2.296875 -1.109375 C 1.367188 -2.078125 0.90625 -3.46875 0.90625 -5.28125 L 0.90625 -14.65625 L 4.59375 -14.65625 L 4.59375 -5.28125 C 4.59375 -4.332031 4.796875 -3.660156 5.203125 -3.265625 C 5.617188 -2.878906 6.226562 -2.6875 7.03125 -2.6875 C 7.832031 -2.6875 8.4375 -2.878906 8.84375 -3.265625 C 9.257812 -3.660156 9.46875 -4.332031 9.46875 -5.28125 L 9.46875 -14.65625 L 13.15625 -14.65625 L 13.15625 -5.28125 C 13.15625 -3.46875 12.6875 -2.078125 11.75 -1.109375 C 10.820312 -0.148438 9.25 0.328125 7.03125 0.328125 Z M 7.03125 0.328125 "/></g></g></g><g fill="#b88e2f" fill-opacity="1"><g transform="translate(170.599027, 262.536004)"><g><path d="M 1 0 L 1 -14.65625 L 7.90625 -14.65625 C 9.539062 -14.65625 10.820312 -14.289062 11.75 -13.5625 C 12.675781 -12.832031 13.140625 -11.773438 13.140625 -10.390625 C 13.140625 -9.421875 12.875 -8.628906 12.34375 -8.015625 C 11.8125 -7.410156 11.085938 -7.007812 10.171875 -6.8125 L 10.171875 -6.765625 C 10.785156 -6.648438 11.269531 -6.421875 11.625 -6.078125 C 11.976562 -5.734375 12.242188 -5.320312 12.421875 -4.84375 C 12.609375 -4.363281 12.738281 -3.863281 12.8125 -3.34375 C 12.882812 -2.820312 12.929688 -2.328125 12.953125 -1.859375 C 12.984375 -1.398438 13.019531 -1.019531 13.0625 -0.71875 C 13.113281 -0.414062 13.207031 -0.242188 13.34375 -0.203125 L 13.34375 0 L 9.515625 0 C 9.390625 -0.101562 9.3125 -0.296875 9.28125 -0.578125 C 9.257812 -0.859375 9.242188 -1.191406 9.234375 -1.578125 C 9.222656 -1.972656 9.195312 -2.375 9.15625 -2.78125 C 9.125 -3.195312 9.035156 -3.578125 8.890625 -3.921875 C 8.742188 -4.273438 8.519531 -4.5625 8.21875 -4.78125 C 7.914062 -5 7.503906 -5.109375 6.984375 -5.109375 L 4.6875 -5.109375 L 4.6875 0 Z M 4.6875 -8.125 L 7.203125 -8.125 C 7.929688 -8.125 8.488281 -8.257812 8.875 -8.53125 C 9.257812 -8.8125 9.453125 -9.257812 9.453125 -9.875 C 9.453125 -10.488281 9.257812 -10.9375 8.875 -11.21875 C 8.488281 -11.5 7.929688 -11.640625 7.203125 -11.640625 L 4.6875 -11.640625 Z M 4.6875 -8.125 "/></g></g></g><g fill="#b88e2f" fill-opacity="1"><g transform="translate(194.82722, 262.536004)"><g><path d="M 4.71875 0 L -0.046875 -14.65625 L 3.875 -14.65625 L 6.640625 -4.390625 L 6.6875 -4.390625 L 9.46875 -14.65625 L 13.359375 -14.65625 L 8.609375 0 Z M 4.71875 0 "/></g></g></g><g fill="#b88e2f" fill-opacity="1"><g transform="translate(218.645498, 262.536004)"><g><path d="M 1 0 L 1 -14.65625 L 12.109375 -14.65625 L 12.109375 -11.640625 L 4.6875 -11.640625 L 4.6875 -9.046875 L 11.09375 -9.046875 L 11.09375 -6.03125 L 4.6875 -6.03125 L 4.6875 -3.015625 L 12.234375 -3.015625 L 12.234375 0 Z M 1 0 "/></g></g></g><g fill="#b88e2f" fill-opacity="1"><g transform="translate(241.992359, 262.536004)"><g><path d="M 1 0 L 1 -14.65625 L 7.5 -14.65625 C 9.539062 -14.65625 11.140625 -14.019531 12.296875 -12.75 C 13.460938 -11.488281 14.046875 -9.675781 14.046875 -7.3125 C 14.046875 -4.96875 13.5 -3.160156 12.40625 -1.890625 C 11.3125 -0.628906 9.742188 0 7.703125 0 Z M 4.6875 -3.015625 L 7.140625 -3.015625 C 8.285156 -3.015625 9.109375 -3.398438 9.609375 -4.171875 C 10.109375 -4.941406 10.359375 -5.988281 10.359375 -7.3125 C 10.359375 -8.65625 10.109375 -9.710938 9.609375 -10.484375 C 9.109375 -11.253906 8.285156 -11.640625 7.140625 -11.640625 L 4.6875 -11.640625 Z M 4.6875 -3.015625 "/></g></g></g><g fill="#b88e2f" fill-opacity="1"><g transform="translate(266.917418, 262.536004)"><g><path d="M -0.015625 0 L 5.28125 -14.65625 L 8.984375 -14.65625 L 14.265625 0 L 10.578125 0 L 9.640625 -3.046875 L 4.609375 -3.046875 L 3.671875 0 Z M 5.453125 -5.859375 L 8.8125 -5.859375 L 7.15625 -11.28125 L 7.109375 -11.28125 Z M 5.453125 -5.859375 "/></g></g></g></svg>